<svg width="65" height="65" viewBox="0 0 65 65" fill="none" xmlns="http://www.w3.org/2000/svg">
<path d="M14.8129 47.3129L43.8471 18.2812H22.3438C21.805 18.2812 21.2884 18.0672 20.9074 17.6863C20.5265 17.3053 20.3125 16.7887 20.3125 16.25C20.3125 15.7112 20.5265 15.1946 20.9074 14.8137C21.2884 14.4327 21.805 14.2187 22.3438 14.2187H48.75C49.2887 14.2187 49.8054 14.4327 50.1863 14.8137C50.5672 15.1946 50.7812 15.7112 50.7812 16.25V42.6562C50.7812 43.1949 50.5672 43.7116 50.1863 44.0925C49.8054 44.4735 49.2887 44.6875 48.75 44.6875C48.2113 44.6875 47.6946 44.4735 47.3137 44.0925C46.9328 43.7116 46.7188 43.1949 46.7188 42.6562V21.1529L17.6871 50.1871C17.4984 50.3758 17.2743 50.5255 17.0278 50.6276C16.7812 50.7298 16.5169 50.7823 16.25 50.7823C15.9831 50.7823 15.7188 50.7298 15.4722 50.6276C15.2257 50.5255 15.0016 50.3758 14.8129 50.1871C14.6242 49.9984 14.4745 49.7743 14.3723 49.5277C14.2702 49.2811 14.2176 49.0169 14.2176 48.75C14.2176 48.4831 14.2702 48.2188 14.3723 47.9722C14.4745 47.7256 14.6242 47.5016 14.8129 47.3129Z" fill="black"/>
</svg>
