<svg width="25" height="25" viewBox="0 0 25 25" fill="none" xmlns="http://www.w3.org/2000/svg">
<path d="M16.5075 19.5687C16.5772 19.6384 16.6325 19.7211 16.6702 19.8121C16.7079 19.9032 16.7273 20.0007 16.7273 20.0993C16.7273 20.1978 16.7079 20.2954 16.6702 20.3865C16.6325 20.4775 16.5772 20.5602 16.5075 20.6299C16.4379 20.6996 16.3551 20.7549 16.2641 20.7926C16.173 20.8303 16.0755 20.8497 15.9769 20.8497C15.8784 20.8497 15.7808 20.8303 15.6897 20.7926C15.5987 20.7549 15.516 20.6996 15.4463 20.6299L7.94628 13.1299C7.87655 13.0603 7.82123 12.9775 7.78349 12.8865C7.74575 12.7955 7.72632 12.6979 7.72632 12.5993C7.72632 12.5007 7.74575 12.4031 7.78349 12.3121C7.82123 12.221 7.87655 12.1383 7.94628 12.0687L15.4463 4.56867C15.587 4.42794 15.7779 4.34888 15.9769 4.34888C16.1759 4.34888 16.3668 4.42794 16.5075 4.56867C16.6483 4.7094 16.7273 4.90027 16.7273 5.09929C16.7273 5.29832 16.6483 5.48919 16.5075 5.62992L9.53722 12.5993L16.5075 19.5687Z" fill="white"/>
</svg>
