<svg width="27" height="27" viewBox="0 0 27 27" fill="none" xmlns="http://www.w3.org/2000/svg">
<path d="M13.5 7.6875C12.3504 7.6875 11.2266 8.0284 10.2707 8.66708C9.31489 9.30577 8.56988 10.2136 8.12995 11.2757C7.69002 12.3377 7.57491 13.5064 7.79919 14.634C8.02346 15.7615 8.57705 16.7972 9.38994 17.6101C10.2028 18.423 11.2385 18.9765 12.366 19.2008C13.4936 19.4251 14.6623 19.31 15.7243 18.8701C16.7864 18.4301 17.6942 17.6851 18.3329 16.7293C18.9716 15.7734 19.3125 14.6496 19.3125 13.5C19.3109 11.9589 18.698 10.4814 17.6083 9.39171C16.5186 8.302 15.0411 7.6891 13.5 7.6875ZM13.5 17.375C12.7336 17.375 11.9844 17.1477 11.3472 16.7219C10.7099 16.2962 10.2133 15.691 9.91997 14.9829C9.62668 14.2748 9.54994 13.4957 9.69946 12.744C9.84897 11.9923 10.218 11.3019 10.76 10.76C11.3019 10.218 11.9923 9.84897 12.744 9.69946C13.4957 9.54994 14.2748 9.62668 14.9829 9.91997C15.691 10.2133 16.2962 10.7099 16.7219 11.3472C17.1477 11.9844 17.375 12.7336 17.375 13.5C17.375 14.5277 16.9667 15.5133 16.24 16.24C15.5133 16.9667 14.5277 17.375 13.5 17.375ZM19.3125 0.90625H7.6875C5.88959 0.908173 4.16587 1.62324 2.89456 2.89456C1.62324 4.16587 0.908173 5.88959 0.90625 7.6875V19.3125C0.908173 21.1104 1.62324 22.8341 2.89456 24.1054C4.16587 25.3768 5.88959 26.0918 7.6875 26.0938H19.3125C21.1104 26.0918 22.8341 25.3768 24.1054 24.1054C25.3768 22.8341 26.0918 21.1104 26.0938 19.3125V7.6875C26.0918 5.88959 25.3768 4.16587 24.1054 2.89456C22.8341 1.62324 21.1104 0.908173 19.3125 0.90625ZM24.1562 19.3125C24.1562 20.5971 23.6459 21.8292 22.7375 22.7375C21.8292 23.6459 20.5971 24.1562 19.3125 24.1562H7.6875C6.40286 24.1562 5.17083 23.6459 4.26245 22.7375C3.35407 21.8292 2.84375 20.5971 2.84375 19.3125V7.6875C2.84375 6.40286 3.35407 5.17083 4.26245 4.26245C5.17083 3.35407 6.40286 2.84375 7.6875 2.84375H19.3125C20.5971 2.84375 21.8292 3.35407 22.7375 4.26245C23.6459 5.17083 24.1562 6.40286 24.1562 7.6875V19.3125ZM21.25 7.20312C21.25 7.49053 21.1648 7.77147 21.0051 8.01044C20.8454 8.2494 20.6185 8.43565 20.353 8.54564C20.0874 8.65562 19.7953 8.6844 19.5134 8.62833C19.2315 8.57226 18.9726 8.43386 18.7694 8.23064C18.5661 8.02742 18.4277 7.76849 18.3717 7.48662C18.3156 7.20474 18.3444 6.91256 18.4544 6.64704C18.5643 6.38151 18.7506 6.15457 18.9896 5.9949C19.2285 5.83522 19.5095 5.75 19.7969 5.75C20.1823 5.75 20.5519 5.9031 20.8244 6.17561C21.0969 6.44812 21.25 6.81773 21.25 7.20312Z" fill="white"/>
</svg>
